#!OML:ASF E:/inclinewalkrobotboard/Project1/Captureday1/Session1/subject1.ASF
:FULLY-SPECIFIED
:DEGREES
388
root 0 0 0 10.195030864915253 25.23190347903476 -11.428296899608041
lowerback 9.977292532362569 2.710518704744631 0.03767269140956664
upperback 1.2674456752990715 3.406697539330317 -1.828505242381179
thorax -4.243467361962996 1.7653074450222388 -2.2002755492083197
lowerneck -9.676234756704623 -5.439413515628587 -7.829734819954359
upperneck 3.2975866530038225 -6.467591963806289 5.602489098061581
head 3.6655911875884786 -3.024910447926544 2.7292424990071815
rclavicle -1.0812925052287328E-14 2.3422935602279946E-16
rhumerus 5.501912795236334 -13.81219742224833 -66.21923670986837
rradius 20.53069495805373
rwrist 56.40113394586858
rhand -7.828152833761621 21.81091927792214
rfingers 7.125019999999915
rthumb 18.078256172225423 -7.878047044183489
lclavicle -7.204227787423397E-15 6.925205490624966E-15
lhumerus -22.107922660351967 6.491630680583153 75.37780645631793
lradius 36.97326950162971
lwrist -36.89979585549926
lhand -10.259286420321295 14.575621457328516
lfingers 7.053123788214341
lthumb 15.451952882422948 72.53635443489594
rfemur -8.243053682712402 2.6885394229929283 25.696686029573325
rtibia 61.50376891152419
rfoot 9.717993507309004 -1.4039475230393563
rtoes 16.19774056029612
lfemur -9.41241861074382 -2.058451071784808 -27.533308079183296
ltibia 26.436935029540365
lfoot -15.400015382262866 2.511321902452358
ltoes 12.188682044883262
389
root 0 0 0 9.931133141281828 25.111821398162366 -11.335886802928774
lowerback 9.698207190565705 2.6508907206351564 -0.1560579818107377
upperback 1.1869136100165028 3.316403059241636 -1.8415337905224556
thorax -4.185700724897976 1.720421279107735 -2.0897880463516882
lowerneck -9.782998426445053 -5.554535154326916 -7.8722390633121275
upperneck 3.578364161039599 -6.672554022543048 5.689337218921182
head 3.775193898304831 -3.113133670216301 2.7434820687909633
rclavicle -1.079490376250022E-14 3.053452048654775E-16
rhumerus 5.412017106255495 -13.899263370858035 -66.34152189371224
rradius 20.57925271090918
rwrist 56.45848798411653
rhand -7.88354149369386 21.80716777117044
rfingers 7.125019999999915
rthumb 18.025037194986268 -7.881262897819489
lclavicle -7.594718821057132E-15 7.242078677676496E-15
lhumerus -22.638020369950446 6.2527036254452675 75.74561556030523
lradius 37.373342022935425
lwrist -36.76213244067645
lhand -10.098736813519974 14.559649359319366
lfingers 7.051926489826441
lthumb 15.602436577884687 72.38124146849897
rfemur -9.791454668772158 1.749299964864285 24.17375325260571
rtibia 68.30327542575014
rfoot 11.457382211727648 -1.4294083967792712
rtoes 16.08112745325947
lfemur -8.199978117491359 -2.116272156991372 -27.972847483552748
ltibia 25.854902664051465
lfoot -16.450052435564345 2.977925898307719
ltoes 11.895660704828686
390
root 0 0 0 9.607370943403415 24.92722466763409 -11.221017635958269
lowerback 9.383768972499789 2.577755176209563 -0.3622854049498512
upperback 1.098979817050365 3.2086921093973224 -1.8515228938119734
thorax -4.1180735040223 1.6667339699753958 -1.9664440043783469
lowerneck -9.900112513535985 -5.695853454725498 -7.918186123688983
upperneck 3.8865375602618775 -6.9185187695236205 5.801682584167772
head 3.897583289022083 -3.219736925687706 2.7633240406713315
rclavicle -1.0737799717763472E-14 3.412622804224661E-16
rhumerus 5.345735222336123 -13.87719899521989 -66.39656193033005
rradius 20.50239383499411
rwrist 56.55535533227486
rhand -7.906911798033718 21.79673564619599
rfingers 7.125019999999915
rthumb 18.00303729294691 -7.8937212939792545
lclavicle -7.746409331101906E-15 7.394724038239946E-15
lhumerus -23.028288508954716 6.016475580593784 76.0484388261003
lradius 37.61471991448548
lwrist -36.71066339853067
lhand -9.955508773057904 14.555464095072779
lfingers 7.050933572482759
lthumb 15.736520200106074 72.0854289011162
rfemur -11.358601113290016 1.0900160065986633 23.567461787108233
rtibia 70.98770321741577
rfoot 11.675097958249669 -1.6047215376268564
rtoes 15.464311021756169
lfemur -7.314783489945492 -2.1508822145057365 -28.23377336367279
ltibia 25.42250789944246
lfoot -17.02733713896229 3.181723478895896
ltoes 11.580441877765079
391
root 0 0 0 9.251511973656076 24.691599673896338 -11.102582019612985
lowerback 9.069106059724252 2.498526533834885 -0.5601032495813383
upperback 1.0124765708665322 3.0945183564740013 -1.855574398723038
thorax -4.0490657548433155 1.6097324787660015 -1.8410073670363027
lowerneck -10.017376157807586 -5.850948326238586 -7.966006965548817
upperneck 4.188220444564747 -7.182873121706496 5.933069292938419
head 4.0199872265339565 -3.3352242763416298 2.788682226414639
rclavicle -1.0654889852580928E-14 3.3364204607954753E-16
rhumerus 5.222018221502451 -13.762941526515219 -66.47375995746599
rradius 20.337447308639177
rwrist 56.694262656549384
rhand -7.895229208531614 21.79440412988061
rfingers 7.125019999999915
rthumb 18.015113201425272 -7.89846897042943
lclavicle -7.689677274731643E-15 7.391527352386554E-15
lhumerus -23.315509454920576 5.807394517598915 76.29136640893326
lradius 37.69135156054865
lwrist -36.72521783458424
lhand -9.847461819058097 14.569414778394993
lfingers 7.050548247784611
lthumb 15.838935573414997 71.69237621367017
rfemur -12.590719205593473 0.6581634235268314 23.28271963957918
rtibia 72.07523259412312
rfoot 11.427728955944676 -1.8117118238883414
rtoes 14.827342861814062
lfemur -6.424740621784165 -2.1753982230811926 -28.44503785045935
ltibia 25.09041842157083
lfoot -17.354579369240902 3.2082780785266465
ltoes 11.207261413804567
